<svg height="512" viewBox="0 0 512 512" width="512" xmlns="http://www.w3.org/2000/svg"><g><g><g><path d="m476 48h-440a19.994 19.994 0 0 0 -20 20v292h480v-292a19.994 19.994 0 0 0 -20-20zm-124 256-103.89-.14h63.89l-31.94-41.07 23.94-30.79 48 61.71z" fill="#83d8f4"/><path d="m496 360v20a19.994 19.994 0 0 1 -20 20h-440a19.994 19.994 0 0 1 -20-20v-20z" fill="#e0e0e2"/><path d="m320 448h-128l16-48h96z" fill="#898890"/><path d="m168 448h176v24h-176z" fill="#e0e0e2"/></g><path d="m304 232-23.94 30.79 31.94 41.07h-63.89l103.89.14h-192v-192h192v181.71z" fill="#2488ff"/><circle cx="304" cy="168" fill="#cca400" r="24"/><path d="m352 293.71v10.29l-103.89-.14h63.89l-31.94-41.07 23.94-30.79z" fill="#4e901e"/><path d="m352 304h-104l.11-.14z" fill="#e0e0e2"/><path d="m312 303.86h-152v-72l48-61.72 72.06 92.65z" fill="#91cc04"/></g><g><path d="m476 40h-440a28.031 28.031 0 0 0 -28 28v312a28.031 28.031 0 0 0 28 28h160.9l-10.67 32h-18.23a8 8 0 0 0 -8 8v16h-56a8 8 0 0 0 0 16h304a8 8 0 0 0 0-16h-56v-16a8 8 0 0 0 -8-8h-18.23l-10.67-32h160.9a28.031 28.031 0 0 0 28-28v-312a28.031 28.031 0 0 0 -28-28zm-140 416v8h-160v-8zm-132.9-16 10.67-32h84.46l10.67 32zm284.9-60a12.01 12.01 0 0 1 -12 12h-440a12.01 12.01 0 0 1 -12-12v-12h464zm0-28h-464v-284a12.01 12.01 0 0 1 12-12h440a12.01 12.01 0 0 1 12 12z"/><path d="m376 296h-16v-184a8 8 0 0 0 -8-8h-184v-16a8 8 0 0 0 -16 0v16h-16a8 8 0 0 0 0 16h16v184a8 8 0 0 0 8 8h184v16a8 8 0 0 0 16 0v-16h16a8 8 0 0 0 0-16zm-208-.14v-61.26l40-51.43 87.64 112.69zm148.02.14-25.83-33.21 13.81-17.76 39.65 50.97zm27.98-25.6-33.69-43.31a8 8 0 0 0 -12.63 0l-17.62 22.67-65.75-84.53a8 8 0 0 0 -12.63 0l-33.68 43.31v-88.54h176z"/><path d="m304 200a32 32 0 1 0 -32-32 32.036 32.036 0 0 0 32 32zm0-48a16 16 0 1 1 -16 16 16.019 16.019 0 0 1 16-16z"/></g></g></svg>